<mxfile host="app.diagrams.net" modified="2024-06-10T17:17:28.663Z" agent="Mozilla/5.0 (Windows NT 10.0; Win64; x64) AppleWebKit/537.36 (KHTML, like Gecko) Chrome/125.0.0.0 Safari/537.36 Edg/125.0.0.0" etag="BoTi-LpzEgk9og_9Fd4V" version="24.5.2" type="device">
  <diagram name="PÃ¡gina-1" id="5w6akExjLI2PrrA34aHM">
    <mxGraphModel dx="2253" dy="1962" grid="1" gridSize="10" guides="1" tooltips="1" connect="1" arrows="1" fold="1" page="1" pageScale="1" pageWidth="827" pageHeight="1169" background="#ffffff" math="0" shadow="0">
      <root>
        <mxCell id="0" />
        <mxCell id="1" parent="0" />
        <mxCell id="sL8t1JqwlWEROjjgBsKE-14" style="edgeStyle=none;curved=1;rounded=0;orthogonalLoop=1;jettySize=auto;html=1;exitX=1;exitY=0.5;exitDx=0;exitDy=0;fontSize=12;startSize=8;endSize=8;entryX=0;entryY=0.5;entryDx=0;entryDy=0;labelBackgroundColor=none;fontColor=default;" parent="1" source="sL8t1JqwlWEROjjgBsKE-1" target="sL8t1JqwlWEROjjgBsKE-15" edge="1">
          <mxGeometry relative="1" as="geometry">
            <mxPoint x="590" y="230" as="targetPoint" />
          </mxGeometry>
        </mxCell>
        <mxCell id="sL8t1JqwlWEROjjgBsKE-1" value="&lt;font style=&quot;vertical-align: inherit;&quot;&gt;&lt;font style=&quot;vertical-align: inherit;&quot;&gt;API:&lt;/font&gt;&lt;/font&gt;&lt;div&gt;&lt;font style=&quot;vertical-align: inherit;&quot;&gt;&lt;font style=&quot;vertical-align: inherit;&quot;&gt;Get Network Coverage entries within 2km&lt;/font&gt;&lt;/font&gt;&lt;/div&gt;" style="rhombus;whiteSpace=wrap;html=1;labelBackgroundColor=none;" parent="1" vertex="1">
          <mxGeometry x="410" y="240" width="150" height="140" as="geometry" />
        </mxCell>
        <mxCell id="ViLeS-YL35sJdWyMplOZ-2" value="(X, Y)" style="edgeStyle=orthogonalEdgeStyle;rounded=0;orthogonalLoop=1;jettySize=auto;html=1;exitX=0.5;exitY=1;exitDx=0;exitDy=0;exitPerimeter=0;entryX=0.5;entryY=0;entryDx=0;entryDy=0;" parent="1" source="sL8t1JqwlWEROjjgBsKE-2" target="ViLeS-YL35sJdWyMplOZ-1" edge="1">
          <mxGeometry relative="1" as="geometry" />
        </mxCell>
        <mxCell id="sL8t1JqwlWEROjjgBsKE-2" value="&lt;br&gt;network coverage measure&lt;br&gt;CSV" style="shape=cylinder3;whiteSpace=wrap;html=1;boundedLbl=1;backgroundOutline=1;size=15;labelBackgroundColor=none;" parent="1" vertex="1">
          <mxGeometry x="445" y="-20" width="80" height="110" as="geometry" />
        </mxCell>
        <mxCell id="sL8t1JqwlWEROjjgBsKE-5" value="&lt;h1 style=&quot;margin-top: 0px; line-height: 60%;&quot;&gt;&lt;span style=&quot;background-color: initial; font-size: 12px; font-weight: normal;&quot;&gt;Each line have the provider (20801 = Orange, 20810 = SFR, 20815 = Free, 20820 = Bouygue, &lt;/span&gt;&lt;a style=&quot;background-color: initial; font-size: 12px; font-weight: normal; cursor: pointer; overflow-wrap: break-word; text-decoration: inherit;&quot; tabindex=&quot;0&quot; data-token-index=&quot;1&quot; rel=&quot;noopener noreferrer&quot; class=&quot;notion-link-token notion-focusable-token notion-enable-hover&quot; href=&quot;https://fr.wikipedia.org/wiki/Mobile_Network_Code#Tableau_des_MNC_pour_la_France_m%C3%A9tropolitaine&quot;&gt;&lt;span class=&quot;link-annotation-unknown-block-id-1845796663&quot; style=&quot;border-bottom:0.05em solid;border-color:rgba(55,53,47,.4);opacity:0.7&quot;&gt;source&lt;/span&gt;&lt;/a&gt;&lt;span style=&quot;background-color: initial; font-size: 12px; font-weight: normal;&quot;&gt;), Lambert93 geographic coordinate (X, Y) and network coverage for 2G, 3G and 4G&lt;/span&gt;&lt;br&gt;&lt;/h1&gt;" style="text;html=1;whiteSpace=wrap;overflow=hidden;rounded=0;labelBackgroundColor=none;" parent="1" vertex="1">
          <mxGeometry x="163" y="-20" width="200" height="130" as="geometry" />
        </mxCell>
        <mxCell id="sL8t1JqwlWEROjjgBsKE-7" style="edgeStyle=none;curved=1;rounded=0;orthogonalLoop=1;jettySize=auto;html=1;exitX=0;exitY=0;exitDx=0;exitDy=75;exitPerimeter=0;entryX=1.017;entryY=0.585;entryDx=0;entryDy=0;entryPerimeter=0;fontSize=12;startSize=8;endSize=8;labelBackgroundColor=none;fontColor=default;" parent="1" source="sL8t1JqwlWEROjjgBsKE-2" target="sL8t1JqwlWEROjjgBsKE-5" edge="1">
          <mxGeometry relative="1" as="geometry" />
        </mxCell>
        <mxCell id="sL8t1JqwlWEROjjgBsKE-12" style="edgeStyle=none;curved=1;rounded=0;orthogonalLoop=1;jettySize=auto;html=1;exitX=0.5;exitY=1;exitDx=0;exitDy=0;entryX=0.5;entryY=0;entryDx=0;entryDy=0;fontSize=12;startSize=8;endSize=8;labelBackgroundColor=none;fontColor=default;" parent="1" source="sL8t1JqwlWEROjjgBsKE-9" target="sL8t1JqwlWEROjjgBsKE-13" edge="1">
          <mxGeometry relative="1" as="geometry">
            <mxPoint x="60" y="400" as="targetPoint" />
          </mxGeometry>
        </mxCell>
        <mxCell id="sL8t1JqwlWEROjjgBsKE-28" value="(X, Y)" style="edgeStyle=none;curved=1;rounded=0;orthogonalLoop=1;jettySize=auto;html=1;exitX=1;exitY=0.5;exitDx=0;exitDy=0;fontSize=12;startSize=8;endSize=8;entryX=0;entryY=0.5;entryDx=0;entryDy=0;labelBackgroundColor=none;fontColor=#FF0000;fontStyle=1;strokeColor=#b85450;fillColor=#f8cecc;" parent="1" source="sL8t1JqwlWEROjjgBsKE-9" target="sL8t1JqwlWEROjjgBsKE-29" edge="1">
          <mxGeometry relative="1" as="geometry">
            <mxPoint x="190" y="310.11764705882354" as="targetPoint" />
          </mxGeometry>
        </mxCell>
        <UserObject label="https://adresse.data.gouv.fr/api-doc" link="https://adresse.data.gouv.fr/api-doc" id="sL8t1JqwlWEROjjgBsKE-9">
          <mxCell style="rounded=0;whiteSpace=wrap;html=1;labelBackgroundColor=none;" parent="1" vertex="1">
            <mxGeometry x="-127" y="295" width="200" height="30" as="geometry" />
          </mxCell>
        </UserObject>
        <mxCell id="sL8t1JqwlWEROjjgBsKE-13" value="&lt;ul&gt;&lt;li&gt;address detail from a query address (the insee code, geographic coordinates, etc.)&lt;/li&gt;&lt;li&gt;Do reverse geographic search (from longitude and latitude, retrieve an address).&lt;/li&gt;&lt;/ul&gt;" style="text;strokeColor=none;fillColor=none;html=1;whiteSpace=wrap;verticalAlign=middle;overflow=hidden;labelBackgroundColor=none;" parent="1" vertex="1">
          <mxGeometry x="-272" y="400" width="490" height="80" as="geometry" />
        </mxCell>
        <mxCell id="sL8t1JqwlWEROjjgBsKE-15" value="&lt;h1 style=&quot;margin-top: 0px; line-height: 60%;&quot;&gt;&lt;div style=&quot;color: #cccccc;background-color: #1f1f1f;font-family: Consolas, &#39;Courier New&#39;, monospace;font-weight: normal;font-size: 14px;line-height: 19px;white-space: pre;&quot;&gt;&lt;div&gt;&lt;/div&gt;&lt;div&gt;&lt;span style=&quot;color: #d4d4d4;&quot;&gt;{&lt;/span&gt;&lt;/div&gt;&lt;div&gt;&lt;span style=&quot;color: #d4d4d4;&quot;&gt;&amp;nbsp; &amp;nbsp; &lt;/span&gt;&lt;span style=&quot;color: #9cdcfe;&quot;&gt;&quot;orange&quot;&lt;/span&gt;&lt;span style=&quot;color: #d4d4d4;&quot;&gt;: {&lt;/span&gt;&lt;span style=&quot;color: #9cdcfe;&quot;&gt;&quot;2G&quot;&lt;/span&gt;&lt;span style=&quot;color: #d4d4d4;&quot;&gt;: &lt;/span&gt;&lt;span style=&quot;color: #569cd6;&quot;&gt;true&lt;/span&gt;&lt;span style=&quot;color: #d4d4d4;&quot;&gt;, &lt;/span&gt;&lt;span style=&quot;color: #9cdcfe;&quot;&gt;&quot;3G&quot;&lt;/span&gt;&lt;span style=&quot;color: #d4d4d4;&quot;&gt;: &lt;/span&gt;&lt;span style=&quot;color: #569cd6;&quot;&gt;true&lt;/span&gt;&lt;span style=&quot;color: #d4d4d4;&quot;&gt;, &lt;/span&gt;&lt;span style=&quot;color: #9cdcfe;&quot;&gt;&quot;4G&quot;&lt;/span&gt;&lt;span style=&quot;color: #d4d4d4;&quot;&gt;: &lt;/span&gt;&lt;span style=&quot;color: #569cd6;&quot;&gt;false&lt;/span&gt;&lt;span style=&quot;color: #d4d4d4;&quot;&gt;}, &lt;/span&gt;&lt;/div&gt;&lt;div&gt;&lt;span style=&quot;color: #d4d4d4;&quot;&gt;&amp;nbsp; &amp;nbsp; &lt;/span&gt;&lt;span style=&quot;color: #9cdcfe;&quot;&gt;&quot;SFR&quot;&lt;/span&gt;&lt;span style=&quot;color: #d4d4d4;&quot;&gt;: {&lt;/span&gt;&lt;span style=&quot;color: #9cdcfe;&quot;&gt;&quot;2G&quot;&lt;/span&gt;&lt;span style=&quot;color: #d4d4d4;&quot;&gt;: &lt;/span&gt;&lt;span style=&quot;color: #569cd6;&quot;&gt;true&lt;/span&gt;&lt;span style=&quot;color: #d4d4d4;&quot;&gt;, &lt;/span&gt;&lt;span style=&quot;color: #9cdcfe;&quot;&gt;&quot;3G&quot;&lt;/span&gt;&lt;span style=&quot;color: #d4d4d4;&quot;&gt;: &lt;/span&gt;&lt;span style=&quot;color: #569cd6;&quot;&gt;true&lt;/span&gt;&lt;span style=&quot;color: #d4d4d4;&quot;&gt;, &lt;/span&gt;&lt;span style=&quot;color: #9cdcfe;&quot;&gt;&quot;4G&quot;&lt;/span&gt;&lt;span style=&quot;color: #d4d4d4;&quot;&gt;: &lt;/span&gt;&lt;span style=&quot;color: #569cd6;&quot;&gt;true&lt;/span&gt;&lt;span style=&quot;color: #d4d4d4;&quot;&gt;}&lt;/span&gt;&lt;/div&gt;&lt;div&gt;&lt;span style=&quot;color: #d4d4d4;&quot;&gt;}&lt;/span&gt;&lt;/div&gt;&lt;/div&gt;&lt;/h1&gt;" style="text;html=1;whiteSpace=wrap;overflow=hidden;rounded=0;labelBackgroundColor=none;" parent="1" vertex="1">
          <mxGeometry x="680" y="267.5" width="420" height="85" as="geometry" />
        </mxCell>
        <mxCell id="sL8t1JqwlWEROjjgBsKE-22" style="edgeStyle=none;curved=1;rounded=0;orthogonalLoop=1;jettySize=auto;html=1;exitX=0.5;exitY=0.5;exitDx=0;exitDy=0;exitPerimeter=0;entryX=0;entryY=0.5;entryDx=0;entryDy=0;fontSize=12;startSize=8;endSize=8;labelBackgroundColor=none;fontColor=default;" parent="1" source="sL8t1JqwlWEROjjgBsKE-19" target="sL8t1JqwlWEROjjgBsKE-26" edge="1">
          <mxGeometry relative="1" as="geometry">
            <mxPoint x="-412.9999999999993" y="310" as="targetPoint" />
          </mxGeometry>
        </mxCell>
        <mxCell id="sL8t1JqwlWEROjjgBsKE-19" value="Actor" style="shape=umlActor;verticalLabelPosition=bottom;verticalAlign=top;html=1;outlineConnect=0;labelBackgroundColor=none;" parent="1" vertex="1">
          <mxGeometry x="-600" y="277.5" width="30" height="60" as="geometry" />
        </mxCell>
        <mxCell id="sL8t1JqwlWEROjjgBsKE-23" style="edgeStyle=none;curved=1;rounded=0;orthogonalLoop=1;jettySize=auto;html=1;entryX=0;entryY=0.5;entryDx=0;entryDy=0;fontSize=12;startSize=8;endSize=8;exitX=1;exitY=0.5;exitDx=0;exitDy=0;labelBackgroundColor=none;fontColor=default;" parent="1" source="sL8t1JqwlWEROjjgBsKE-26" target="sL8t1JqwlWEROjjgBsKE-9" edge="1">
          <mxGeometry relative="1" as="geometry">
            <mxPoint x="-223" y="310" as="sourcePoint" />
          </mxGeometry>
        </mxCell>
        <mxCell id="sL8t1JqwlWEROjjgBsKE-26" value="&#xa;&lt;div style=&quot;forced-color-adjust: none; color: rgb(0, 0, 0); font-family: Helvetica; font-size: 12px; font-style: normal; font-variant-ligatures: normal; font-variant-caps: normal; font-weight: 400; letter-spacing: normal; orphans: 2; text-align: center; text-indent: 0px; text-transform: none; widows: 2; word-spacing: 0px; -webkit-text-stroke-width: 0px; white-space: normal; text-decoration-thickness: initial; text-decoration-style: initial; text-decoration-color: initial;&quot;&gt;&lt;span style=&quot;forced-color-adjust: none; font-family: SFMono-Regular, Menlo, Consolas, &amp;quot;PT Mono&amp;quot;, &amp;quot;Liberation Mono&amp;quot;, Courier, monospace; line-height: normal; background-image: initial; background-position: initial; background-size: initial; background-repeat: initial; background-attachment: initial; background-origin: initial; background-clip: initial; color: rgb(235, 87, 87); border-radius: 4px; font-size: 10.2px; padding: 0.2em 0.4em;&quot; class=&quot;notion-enable-hover&quot; spellcheck=&quot;false&quot; data-token-index=&quot;0&quot;&gt;GET&lt;/span&gt;&lt;/div&gt;&lt;span style=&quot;forced-color-adjust: none; font-style: normal; font-variant-ligatures: normal; font-variant-caps: normal; font-weight: 400; letter-spacing: normal; orphans: 2; text-align: center; text-indent: 0px; text-transform: none; widows: 2; word-spacing: 0px; -webkit-text-stroke-width: 0px; white-space: normal; text-decoration-thickness: initial; text-decoration-style: initial; text-decoration-color: initial; font-family: SFMono-Regular, Menlo, Consolas, &amp;quot;PT Mono&amp;quot;, &amp;quot;Liberation Mono&amp;quot;, Courier, monospace; line-height: normal; background-image: initial; background-position: initial; background-size: initial; background-repeat: initial; background-attachment: initial; background-origin: initial; background-clip: initial; color: rgb(235, 87, 87); border-radius: 4px; font-size: 10.2px; padding: 0.2em 0.4em;&quot; class=&quot;notion-enable-hover&quot; spellcheck=&quot;false&quot; data-token-index=&quot;0&quot;&gt;your_api/?q=42+rue+papernest+75011+Paris&lt;/span&gt;&#xa;&#xa;" style="rounded=1;whiteSpace=wrap;html=1;labelBackgroundColor=none;labelBorderColor=none;textShadow=0;glass=0;shadow=1;" parent="1" vertex="1">
          <mxGeometry x="-413" y="277.5" width="223" height="62.5" as="geometry" />
        </mxCell>
        <mxCell id="sL8t1JqwlWEROjjgBsKE-30" value="(LAT, LON)" style="edgeStyle=none;curved=1;rounded=0;orthogonalLoop=1;jettySize=auto;html=1;exitX=1;exitY=0.5;exitDx=0;exitDy=0;entryX=0;entryY=0.5;entryDx=0;entryDy=0;fontSize=12;startSize=8;endSize=8;labelBackgroundColor=none;fontColor=#FF0000;fontStyle=1;fillColor=#f8cecc;strokeColor=#b85450;" parent="1" source="sL8t1JqwlWEROjjgBsKE-29" target="sL8t1JqwlWEROjjgBsKE-1" edge="1">
          <mxGeometry relative="1" as="geometry" />
        </mxCell>
        <mxCell id="sL8t1JqwlWEROjjgBsKE-31" value="" style="edgeStyle=orthogonalEdgeStyle;rounded=0;orthogonalLoop=1;jettySize=auto;html=1;" parent="1" source="sL8t1JqwlWEROjjgBsKE-29" target="sL8t1JqwlWEROjjgBsKE-1" edge="1">
          <mxGeometry relative="1" as="geometry" />
        </mxCell>
        <mxCell id="sL8t1JqwlWEROjjgBsKE-29" value="&lt;br&gt;&lt;div style=&quot;font-family: Consolas, &amp;quot;Courier New&amp;quot;, monospace; font-weight: normal; font-size: 14px; line-height: 19px; white-space: pre;&quot;&gt;&lt;div style=&quot;&quot;&gt;lamber93_to_gps&lt;/div&gt;&lt;/div&gt;&lt;div&gt;&lt;br&gt;&lt;/div&gt;" style="rounded=1;whiteSpace=wrap;html=1;direction=east;labelBackgroundColor=none;" parent="1" vertex="1">
          <mxGeometry x="150" y="278.75" width="150" height="60" as="geometry" />
        </mxCell>
        <mxCell id="ViLeS-YL35sJdWyMplOZ-3" value="(LON, LAT)" style="edgeStyle=orthogonalEdgeStyle;rounded=0;orthogonalLoop=1;jettySize=auto;html=1;exitX=0.5;exitY=1;exitDx=0;exitDy=0;" parent="1" source="ViLeS-YL35sJdWyMplOZ-1" target="sL8t1JqwlWEROjjgBsKE-1" edge="1">
          <mxGeometry relative="1" as="geometry" />
        </mxCell>
        <mxCell id="ViLeS-YL35sJdWyMplOZ-1" value="&lt;br&gt;&lt;div style=&quot;font-family: Consolas, &amp;quot;Courier New&amp;quot;, monospace; font-weight: normal; font-size: 14px; line-height: 19px; white-space: pre;&quot;&gt;&lt;div style=&quot;&quot;&gt;lamber93_to_gps&lt;/div&gt;&lt;/div&gt;&lt;div&gt;&lt;br&gt;&lt;/div&gt;" style="rounded=1;whiteSpace=wrap;html=1;direction=east;labelBackgroundColor=none;" parent="1" vertex="1">
          <mxGeometry x="410" y="140" width="150" height="60" as="geometry" />
        </mxCell>
      </root>
    </mxGraphModel>
  </diagram>
</mxfile>
